<?xml version="1.0" standalone="no"?>
<!DOCTYPE svg PUBLIC "-//W3C//DTD SVG 20010904//EN"
 "http://www.w3.org/TR/2001/REC-SVG-20010904/DTD/svg10.dtd">
<svg version="1.0" xmlns="http://www.w3.org/2000/svg"
 width="100.000000pt" height="100.000000pt" viewBox="0 0 100.000000 100.000000"
 preserveAspectRatio="xMidYMid meet">

<g transform="translate(0.000000,100.000000) scale(0.100000,-0.100000)"
fill="#000000" stroke="none">
<path d="M140 881 c-14 -4 -27 -17 -31 -31 -12 -44 -10 -658 3 -726 l11 -64
119 0 118 0 0 170 0 170 70 0 70 0 0 79 0 78 -61 7 c-33 3 -65 8 -70 12 -5 3
-9 34 -9 70 l0 64 80 0 80 0 0 78 0 79 -64 11 c-67 13 -274 15 -316 3z"/>
<path d="M554 327 c-10 -28 1 -220 14 -225 9 -3 12 23 12 107 l0 111 98 0 c66
0 92 3 82 10 -24 15 -200 13 -206 -3z"/>
</g>
</svg>
